<svg width="65" height="50" viewBox="0 0 52 40" fill="none" xmlns="http://www.w3.org/2000/svg">
<path d="M51.8439 10.3708C51.8652 9.62649 51.8703 9.40334 51.4541 9.34464C51.2788 9.32036 51.0294 9.32541 50.6741 9.33149C48.5868 9.37146 46.6049 9.71757 44.7832 10.5211C44.4689 10.6603 44.147 10.8075 43.7684 10.4913C44.1288 10.1548 44.5039 9.8547 44.9362 9.61232C46.1624 8.92314 47.385 8.23447 48.6871 7.65206C49.0151 7.5043 49.3187 7.32265 49.638 7.16174C49.9705 6.99627 50.0709 6.76553 49.9867 6.39666C49.7865 5.51368 49.6218 4.62969 49.5853 3.64905C49.3704 3.8054 49.2234 3.9066 49.083 4.01489C48.3962 4.54265 47.6495 4.99603 46.8725 5.41855C46.7351 5.49344 46.5988 5.56782 46.4189 5.55264C46.1279 5.52734 45.9804 5.45144 46.1436 5.16757C46.7797 4.07713 47.3966 2.97505 48.0297 1.88056C48.3658 1.30321 48.3526 1.16709 47.8275 0.662604C47.502 0.348881 47.4356 0.355459 47.2947 0.730409C46.8938 1.79808 46.4944 2.86525 46.1016 3.93545C45.3017 6.11279 44.5013 8.28962 43.701 10.467C40.7343 18.5408 37.7696 26.6131 34.8033 34.6879C34.7537 34.823 34.7035 34.9607 34.6406 35.1317C34.8373 35.1221 34.9818 35.1039 35.1287 35.1135C35.296 35.1261 35.4678 35.1469 35.629 35.1949C37.7625 35.8345 39.3287 37.058 40.2705 38.9115C40.454 39.2718 40.6136 39.6377 40.7819 40.0035C40.9015 40.2621 41.0044 40.3957 41.3227 40.1776C41.9847 39.7212 42.7547 39.4206 43.5672 39.1934C43.9494 39.0851 44.3234 38.9667 44.7006 38.8458C44.8704 38.7901 45.0006 38.6904 44.8587 38.5103C44.4537 38.0012 44.1987 37.4052 43.6751 36.9639C42.2944 35.8037 40.7829 34.8665 38.942 34.4977C38.7767 34.4643 38.5496 34.4329 38.5238 34.2705C38.4878 34.0519 38.7554 34.0665 38.9115 34.0387C40.05 33.8318 41.2259 33.8495 42.3983 34.0463C43.772 34.2745 44.9596 34.9359 46.0706 35.7308C46.5126 36.0476 46.5881 36.0339 46.7676 35.5825C47.0002 34.9935 47.2942 34.4385 47.6911 33.934C48.2725 33.1952 48.2573 33.1239 47.3586 32.5091C47.2451 32.4301 47.1285 32.3522 47.0068 32.2864C45.6753 31.5775 44.2281 31.2405 42.7714 30.9637C41.7267 30.7659 40.6881 30.522 39.6318 30.4102C39.4671 30.3914 39.0378 30.3919 39.3561 30.0595C40.0556 29.3344 40.8762 28.7641 42.0197 28.6518C44.2641 28.4332 46.4782 28.5207 48.5634 29.7594C48.8209 29.9122 48.936 29.8778 48.974 29.6076C49.0789 28.8673 49.3526 28.1797 49.6983 27.5254C49.8347 27.2643 49.7693 27.0751 49.5539 26.8605C49.0277 26.3353 48.3982 25.9016 47.6865 25.7144C46.0569 25.2853 44.4162 24.8896 42.7547 24.88C42.3715 24.8775 41.9878 24.8967 41.6041 24.9407C41.2639 24.9782 40.9132 25.0004 40.5609 24.8871C40.3556 24.8213 40.2431 24.7383 40.4388 24.58C40.9948 24.1402 41.5301 23.6732 42.2529 23.4389C44.9018 22.5802 47.6014 22.2473 50.4455 23.5224C50.7014 23.6358 50.8337 23.6469 50.892 23.3443C51.0709 22.4193 51.1125 21.4695 51.2499 20.538C51.2803 20.3477 51.2149 20.1802 51.0197 20.0654C50.3953 19.693 49.7526 19.3635 48.9958 19.3413C48.5244 19.3256 48.0505 19.2851 47.5776 19.2472C45.9956 19.1227 44.4076 18.7513 42.8312 18.9395C42.7881 18.9431 42.7415 18.935 42.6959 18.9289C42.5712 18.9122 42.4222 18.8975 42.3765 18.7821C42.3248 18.6496 42.486 18.6142 42.5732 18.556C43.333 18.0505 44.2231 17.757 45.1334 17.5146C46.9049 17.044 48.7028 17.3749 50.4961 17.886C50.9843 18.0242 51.0598 17.9978 51.0598 17.5424C51.0598 16.6959 50.8621 15.8534 50.6776 15.0119C50.6295 14.7958 50.4728 14.7392 50.2792 14.7245C49.6796 14.6739 49.0891 14.5413 48.5072 14.388C47.5629 14.1416 46.6297 14.0829 45.6874 14.1608C45.179 14.2018 44.6595 14.1957 44.145 14.2068C44.0436 14.2094 43.9063 14.2185 43.8743 14.095C43.8596 14.0282 43.9119 13.9452 43.957 13.882C44.0036 13.8162 44.0741 13.7651 44.1389 13.714C45.32 12.7571 46.8 12.4186 48.419 12.4257C49.3891 12.4308 50.371 12.5461 51.3467 12.5891C51.9118 12.616 52.0654 12.4363 51.9874 11.9248C51.9073 11.4076 51.8302 10.89 51.8449 10.3703" fill="#CBAFA3"/>
<path d="M46.5036 0.047662C46.2091 -0.110718 45.3479 0.152911 45.3201 0.437792C45.1888 1.72861 44.8188 2.96478 44.6226 4.24042C44.5927 4.44384 44.6855 4.73782 44.3043 4.7611C43.9084 4.78438 43.8192 4.52024 43.7305 4.26066C43.7087 4.19336 43.6829 4.12708 43.657 4.0613C43.3017 3.14846 43.0847 2.21438 42.8602 1.26157C42.294 1.74177 41.8064 2.25385 41.2088 2.63537C40.5296 3.06548 40.4688 3.56592 40.8555 4.22676C40.8778 4.26319 40.893 4.30418 40.9092 4.34314C41.7202 6.17033 42.5546 7.99043 43.032 10.0038C43.0964 9.85708 43.1268 9.80041 43.1491 9.74019C43.917 7.62459 44.687 5.50797 45.4544 3.39135C45.8168 2.39603 46.1772 1.40072 46.529 0.400348C46.567 0.296617 46.7256 0.168091 46.5046 0.047662" fill="#CBAFA3"/>
<path d="M42.1082 9.58127C41.6313 8.57483 40.9551 7.65845 40.2166 6.77952C39.4664 5.89047 38.6377 5.06062 37.6756 4.34463C37.6432 4.31933 37.6128 4.29959 37.5839 4.28239C37.4095 4.18169 37.3021 4.2161 37.1794 4.39472C36.7876 4.96701 36.2853 5.45328 35.7399 5.90768C35.4281 6.16726 35.4342 6.40609 35.7662 6.71577C35.9751 6.91007 36.2082 7.08515 36.4373 7.26276C37.1515 7.80924 37.9331 8.28135 38.5931 8.88956C39.5465 9.76748 40.2673 10.7593 40.5689 11.9327C40.6424 12.2236 40.8481 12.6487 40.5075 12.7995C40.1167 12.9751 39.8608 12.5419 39.6038 12.3167C38.734 11.5441 37.9306 10.7081 36.8317 10.1743C36.193 9.86211 35.5462 9.55749 34.9689 9.14763C34.8493 9.06211 34.755 9.04946 34.6465 9.1365C33.9962 9.65616 33.3261 10.1571 32.8036 10.7932C32.5775 11.0684 32.6479 11.285 33.0129 11.4535C33.4351 11.6473 33.8609 11.8355 34.2811 12.0344C36.5392 13.1046 37.9458 14.7688 38.6777 16.8956C38.7233 17.0276 38.8561 17.2144 38.6585 17.2968C38.4663 17.3778 38.2383 17.3469 38.0426 17.2295C37.9524 17.1769 37.886 17.0894 37.812 17.0145C37.3735 16.555 36.8783 16.1502 36.3354 15.8016C35.0941 15.0041 33.8563 14.2041 32.687 13.3181C32.2582 12.9953 31.7442 12.8647 31.2292 12.7514C31.0092 12.7013 30.8658 12.7453 30.7512 12.9265C30.2743 13.6774 29.7674 14.4111 29.296 15.164C28.9802 15.6675 28.9964 15.6802 29.6204 15.9053C29.8399 15.9858 30.0603 16.0602 30.2813 16.1335C33.4605 17.2073 35.9102 19.8501 36.3963 22.7394C36.4226 22.8897 36.5646 23.0855 36.3613 23.1817C36.154 23.2788 35.9092 23.2191 35.7084 23.0916C35.5533 22.995 35.4236 22.8624 35.2953 22.7369C34.7733 22.236 34.2618 21.7249 33.6592 21.2993C33.5096 21.1941 33.3525 21.0959 33.1903 21.0013C32.3235 20.5034 31.4507 20.0095 30.5682 19.5298C29.7699 19.0957 28.9255 18.8169 28.01 18.8224C27.6978 18.8265 27.5346 18.9247 27.4596 19.2146C27.2822 19.9023 27.0815 20.5859 26.7043 21.2027C26.3992 21.6996 26.4321 21.7477 27.0754 21.9172C27.1195 21.9293 27.1631 21.947 27.2092 21.9531C28.9812 22.2486 30.4517 23.083 31.8045 24.1937C33.0083 25.1809 33.6977 26.3093 33.7225 27.72C33.7316 28.0449 33.6161 28.1269 33.2917 28.0899C33.1001 28.0687 32.9338 27.9978 32.7833 27.8865C32.3545 27.5617 31.8745 27.3137 31.4031 27.0501C29.9499 26.2324 28.5002 25.4116 26.9152 24.8394C26.3505 24.6359 25.7813 24.5459 25.1964 24.557C24.9713 24.5626 24.8167 24.6243 24.833 24.8555C24.8938 25.6869 24.7301 26.4697 24.4939 27.2449C24.3033 27.8729 24.4584 28.0297 25.2314 28.1329C25.9795 28.2311 26.7216 28.3531 27.4626 28.5195C29.0953 28.8818 30.3118 29.8144 31.398 30.9327C31.5516 31.0936 31.8075 31.3228 31.6651 31.5075C31.5262 31.6907 31.1993 31.6188 30.9377 31.5672C30.7664 31.5313 30.6068 31.4771 30.4821 31.3567C30.367 31.2449 30.2225 31.1923 30.0771 31.1386C28.1403 30.453 26.2096 30.0117 24.2739 30.6787C23.8405 30.8284 23.7766 30.8639 24.0362 31.2383C24.8314 32.3864 25.683 33.5118 25.9243 34.9342C27.1732 34.2713 28.4338 33.8447 29.8829 33.7946C31.327 33.7451 32.6971 33.9657 34.0084 34.6478C37.0045 26.4748 39.9941 18.3175 43.0074 10.0984C42.4757 10.2153 42.2801 9.94256 42.1108 9.58127" fill="#CBAFA3"/>
<path d="M2.01509 23.2046C1.898 23.5436 1.77635 23.7839 1.64913 23.9271C1.5219 24.0698 1.39974 24.1574 1.28316 24.1893C1.15594 24.2313 1.02821 24.2211 0.900981 24.1579C0.6886 23.9777 0.543128 23.7683 0.463548 23.5304C0.383969 23.2916 0.344433 23.0356 0.344433 22.7598C0.333789 22.2735 0.326186 21.7862 0.32061 21.3C0.315034 20.8127 0.3125 20.3254 0.3125 19.8381C0.3125 19.3933 0.318076 18.9572 0.32872 18.5281C0.338857 18.099 0.349502 17.6623 0.360146 17.218C0.360146 16.9848 0.362681 16.755 0.367749 16.5273C0.373325 16.2996 0.381435 16.0694 0.391572 15.8366C0.412861 15.5082 0.429081 15.1798 0.439725 14.8524C0.45037 14.5241 0.460507 14.1911 0.471658 13.8516C0.481796 13.5449 0.48433 13.2378 0.479262 12.9306C0.473686 12.6235 0.476727 12.3169 0.487371 12.0097C0.497509 11.7132 0.510688 11.4197 0.526908 11.1282C0.542621 10.8368 0.555799 10.5433 0.566951 10.2473C0.587733 9.69727 0.603952 9.14876 0.614597 8.60379C0.624734 8.05831 0.64653 7.51031 0.677956 6.96028C0.698738 6.66376 0.728137 6.37281 0.764632 6.08641C0.80214 5.80052 0.831539 5.50956 0.852828 5.21305C0.884254 4.94891 0.874116 4.66302 0.820895 4.35537C0.800113 4.29212 0.81025 4.2233 0.852828 4.14892C0.894898 4.07504 0.942544 4.01179 0.995766 3.95866C1.14428 3.75777 1.31459 3.64342 1.50517 3.6171C1.69627 3.59079 1.89243 3.63583 2.09365 3.75221C2.13623 3.77346 2.17577 3.79421 2.21328 3.81596C2.24977 3.83722 2.29032 3.8529 2.3329 3.86353C2.44897 3.90654 2.52348 3.98598 2.55542 4.10186C2.57671 4.15499 2.6061 4.19952 2.64311 4.23696C2.68061 4.27441 2.72015 4.31387 2.76222 4.35587C2.94267 4.55676 3.11754 4.75815 3.28684 4.95903C3.45664 5.16093 3.63202 5.35119 3.81196 5.53082C3.98227 5.69982 4.1546 5.85921 4.32948 6.00697C4.50435 6.15573 4.68226 6.30905 4.8622 6.46794C5.08472 6.67945 5.31028 6.88843 5.53837 7.09539C5.76697 7.30184 5.98645 7.51031 6.19933 7.72182C6.4107 7.93384 6.61801 8.14332 6.81924 8.34927C7.02098 8.55572 7.22221 8.7652 7.42394 8.97671C7.5831 9.15685 7.73972 9.34458 7.89331 9.5404C8.04689 9.73623 8.19794 9.92396 8.34645 10.1036C8.39967 10.1673 8.45796 10.2286 8.52132 10.2857C8.5857 10.3444 8.64855 10.4052 8.71191 10.4684C8.79706 10.5641 8.88729 10.6622 8.98258 10.7629C9.07787 10.8631 9.17316 10.9668 9.26896 11.0731C9.31103 11.1151 9.36476 11.152 9.42761 11.1834C9.56548 10.983 9.69828 10.7816 9.82602 10.5802C9.95324 10.3794 10.0911 10.183 10.2396 9.99277C10.4196 9.77064 10.6 9.54799 10.7805 9.32586C10.9604 9.10321 11.1408 8.88108 11.3213 8.65844C11.4799 8.46818 11.6335 8.27792 11.782 8.08716C11.9311 7.8969 12.0791 7.70107 12.2281 7.49968C12.3761 7.31955 12.5114 7.13435 12.6331 6.94358C12.7552 6.75282 12.8901 6.56206 13.0391 6.3718C13.1126 6.27667 13.1927 6.18356 13.2773 6.094C13.362 6.00444 13.4466 5.91133 13.5323 5.8162C13.5424 5.80558 13.5485 5.79546 13.5485 5.78382C13.5485 5.7737 13.5541 5.75852 13.5637 5.73676C13.5855 5.71551 13.5982 5.6892 13.6043 5.65732C13.6093 5.62544 13.622 5.59913 13.6433 5.57838C13.8237 5.4195 13.9722 5.23683 14.0893 5.02987C14.2054 4.82393 14.3489 4.63569 14.5187 4.46618C14.6139 4.36043 14.7097 4.26024 14.805 4.1646C14.9003 4.06947 14.99 3.97384 15.0752 3.87871C15.1279 3.82558 15.1761 3.76992 15.2186 3.71173C15.2612 3.65404 15.3089 3.59838 15.3621 3.54525C15.394 3.50325 15.431 3.46277 15.4731 3.42634C15.5162 3.3889 15.5583 3.35499 15.6008 3.32312C15.6961 3.24873 15.7919 3.17486 15.8872 3.10047C15.982 3.02609 16.0884 2.96284 16.2055 2.90971C16.5015 2.79383 16.7509 2.87783 16.9532 3.16372C17.1331 3.40762 17.2527 3.66467 17.3105 3.93386C17.3683 4.20407 17.4195 4.47681 17.4626 4.75157C17.4935 4.97371 17.5173 5.19938 17.5335 5.42658C17.5498 5.65428 17.5523 5.87946 17.5422 6.10159C17.5209 6.54586 17.4965 6.99064 17.4707 7.43492C17.4438 7.87969 17.4149 8.32447 17.3835 8.76925C17.3617 9.0764 17.3379 9.37494 17.3115 9.66691C17.2852 9.95786 17.2613 10.2569 17.2401 10.5641C17.2183 10.9031 17.2036 11.2472 17.1924 11.5968C17.1823 11.9454 17.1656 12.2905 17.1448 12.6286C17.1448 12.7773 17.1367 12.92 17.1209 13.0576C17.1047 13.1953 17.0921 13.338 17.0814 13.4862C17.0814 13.6031 17.0865 13.7195 17.0976 13.8359C17.1078 13.9523 17.1133 14.0686 17.1133 14.185C17.1133 14.3965 17.1108 14.603 17.1052 14.8044C17.1002 15.0053 17.0976 15.2117 17.0976 15.4237C17.1078 15.6034 17.1184 15.7805 17.1291 15.9555C17.1397 16.1296 17.1448 16.3077 17.1448 16.4874V18.5837C17.1448 18.8271 17.1473 19.066 17.1524 19.2987C17.1585 19.5315 17.1605 19.7698 17.1605 20.0132V21.3313C17.1605 21.4589 17.1635 21.5884 17.1691 21.7205C17.1742 21.853 17.1767 21.9826 17.1767 22.1101C17.1661 22.3848 17.1321 22.6475 17.0738 22.8959C17.015 23.1444 16.8959 23.3746 16.7165 23.5866C16.5674 23.7455 16.4022 23.8518 16.2223 23.9044C16.0423 23.9575 15.8563 23.9944 15.6662 24.0152C15.5177 24.037 15.3793 24.0314 15.2521 23.9995C15.1249 23.9681 14.9916 23.9312 14.8547 23.8887C14.7903 23.8781 14.7118 23.8624 14.616 23.8411C14.4781 23.7035 14.3879 23.539 14.3453 23.3488C14.3027 23.158 14.25 22.9728 14.1867 22.7927C14.1441 22.6768 14.1071 22.5574 14.0751 22.4354C14.0427 22.3135 14.0169 22.189 13.9956 22.062C13.9743 21.9138 13.9687 21.7711 13.9793 21.6334C13.99 21.4958 13.9956 21.3526 13.9956 21.2043V20.1407C14.0057 19.9925 14.0113 19.8391 14.0113 19.6802V19.2193C14.0113 19.0189 14.0057 18.818 13.9956 18.6161C13.9849 18.4152 13.9793 18.2083 13.9793 17.9973C14.0001 17.6051 14.0169 17.2135 14.0275 16.8213C14.0376 16.4302 14.0539 16.038 14.0751 15.6464C14.0964 15.3291 14.1147 15.0113 14.1309 14.6936C14.1471 14.3758 14.1598 14.0535 14.1699 13.7246C14.1912 13.4174 14.1988 13.1052 14.1937 12.7874C14.1887 12.4697 14.1912 12.1519 14.2019 11.8351C14.2125 11.2628 14.2439 10.6911 14.2972 10.1198C14.3184 9.88752 14.3448 9.65628 14.3772 9.42908C14.4092 9.20189 14.4411 8.96052 14.4725 8.70701C14.4193 8.75964 14.3712 8.8072 14.3296 8.8492C14.287 8.8917 14.2495 8.93927 14.2181 8.9924C13.9844 9.25755 13.7538 9.52219 13.5257 9.78632C13.2976 10.051 13.067 10.3207 12.8343 10.5964C12.6848 10.7659 12.5474 10.9355 12.4202 11.104C12.2301 11.3479 12.0385 11.5968 11.8474 11.8503C11.6568 12.1048 11.4597 12.3538 11.2589 12.5972C11.1738 12.7034 11.0755 12.7981 10.965 12.8831C10.8529 12.9681 10.7495 13.0531 10.6542 13.1371C10.5904 13.1902 10.527 13.2479 10.4637 13.3112C10.3993 13.3749 10.3415 13.4331 10.2883 13.4862C10.2036 13.5712 10.1185 13.6355 10.0338 13.677C9.94919 13.7195 9.84325 13.7195 9.71603 13.677C9.6628 13.6552 9.61262 13.6532 9.56447 13.6689C9.51733 13.6851 9.46664 13.6821 9.41393 13.6613C9.30799 13.6082 9.20712 13.553 9.11133 13.4943C9.01654 13.4366 8.92074 13.3699 8.82494 13.2965C8.75094 13.2428 8.68758 13.1771 8.63385 13.0976C8.58063 13.0182 8.51271 12.9519 8.42755 12.8988C8.31046 12.835 8.22531 12.7561 8.17259 12.6604C8.11988 12.5653 8.05044 12.4752 7.96579 12.3907C7.88013 12.3062 7.80359 12.2212 7.73465 12.1362C7.66521 12.0517 7.58918 11.9672 7.50403 11.8817C7.23893 11.5857 6.97637 11.2897 6.71584 10.9926C6.45632 10.6971 6.19477 10.4001 5.92917 10.1031C5.71628 9.87032 5.50187 9.63756 5.28493 9.40429C5.06698 9.17153 4.85257 8.93876 4.6407 8.706C4.42832 8.48285 4.21137 8.26679 3.98784 8.05427C3.76532 7.84276 3.54281 7.63125 3.32029 7.41923C3.29849 7.39798 3.27416 7.37672 3.24831 7.35547C3.22145 7.33473 3.18749 7.3074 3.1444 7.27603C3.1444 7.36104 3.14694 7.43441 3.15302 7.49867C3.15809 7.56243 3.1662 7.62568 3.17634 7.68944C3.22956 8.16559 3.26403 8.64224 3.28025 9.1184C3.29596 9.59455 3.29343 10.0768 3.27264 10.5635C3.26149 10.7862 3.26149 11.0083 3.27264 11.231C3.28278 11.4531 3.28278 11.6808 3.27264 11.9136C3.25135 12.2531 3.23311 12.5911 3.21689 12.9301C3.20067 13.2692 3.18242 13.6072 3.16113 13.9462C3.13984 14.2326 3.11855 14.5185 3.09727 14.8039C3.07648 15.0893 3.05519 15.3752 3.03441 15.6615L2.79568 18.139C2.76374 18.4987 2.73232 18.8534 2.70038 19.2026C2.66794 19.5522 2.63145 19.9014 2.58887 20.2505C2.56758 20.4944 2.54376 20.7297 2.5174 20.9574C2.49054 21.1856 2.45049 21.4153 2.39778 21.6486C2.30147 22.1885 2.17475 22.7072 2.0156 23.2046" fill="#080B17"/>
<path d="M29.1222 24.1926C29.0051 24.2027 28.8885 24.1876 28.7714 24.1456C28.6762 24.1243 28.5728 24.0818 28.4612 24.0181C28.3502 23.9548 28.2468 23.8647 28.1515 23.7484C27.8332 23.2935 27.5889 22.8112 27.4196 22.3032C27.2498 21.7952 27.1018 21.2715 26.9741 20.7305C26.8996 20.4031 26.8362 20.0748 26.783 19.7464C26.7298 19.418 26.6872 19.0845 26.6558 18.7455C26.603 18.2374 26.5473 17.737 26.4885 17.2447C26.4302 16.7528 26.3749 16.2519 26.3222 15.7439C26.3116 15.6062 26.3035 15.4691 26.2984 15.3315C26.2928 15.1938 26.2797 15.0451 26.2589 14.8857C26.1636 15.0031 26.081 15.1119 26.012 15.212C25.9431 15.3127 25.8878 15.4215 25.8448 15.5374C25.6537 16.0459 25.4342 16.5408 25.1848 17.0225C24.9359 17.5037 24.6835 17.9885 24.4296 18.4753C24.3125 18.6767 24.2116 18.8801 24.127 19.087C24.0413 19.2935 23.9414 19.4974 23.8249 19.6983C23.7397 19.8465 23.65 19.9872 23.5537 20.1193C23.4584 20.2519 23.3631 20.3819 23.2673 20.5079C23.0346 20.7938 22.7898 21.062 22.5359 21.3099C22.2814 21.5594 21.9844 21.7633 21.6448 21.9222C21.1146 22.1974 20.5525 22.3083 19.9589 22.2551C19.6827 22.2339 19.4414 22.1494 19.2351 22.0016C19.0283 21.8534 18.8453 21.6677 18.6862 21.4455C18.5164 21.2229 18.3922 20.9851 18.3126 20.7305C18.2335 20.4765 18.1778 20.2119 18.1458 19.9366C18.0724 19.4291 18.0582 18.9236 18.1058 18.4206C18.1535 17.9182 18.23 17.4116 18.3364 16.9036C18.4216 16.5332 18.5138 16.1709 18.6147 15.8157C18.7151 15.461 18.8555 15.1144 19.0359 14.7759C19.4495 13.9814 19.9904 13.267 20.6589 12.6314C21.0614 12.2504 21.4806 11.9012 21.9155 11.5835C22.3504 11.2657 22.8223 10.9859 23.3312 10.742C23.8406 10.4986 24.3515 10.2972 24.8665 10.1388C25.3805 9.97944 25.9081 9.858 26.4489 9.77299C26.4809 9.77299 26.5072 9.76742 26.5285 9.75629C26.5493 9.74617 26.5711 9.74061 26.5919 9.74061C26.677 9.47647 26.7566 9.22448 26.8311 8.98615C26.9051 8.74782 26.9842 8.50798 27.0699 8.26408C27.1018 8.1472 27.1677 8.06522 27.2686 8.01816C27.3694 7.97009 27.4931 7.95744 27.6421 7.9787C27.9072 7.99995 28.1064 8.10823 28.2387 8.30355C28.371 8.49937 28.4481 8.6871 28.4693 8.86775C28.5221 9.11063 28.5408 9.36009 28.5251 9.6141C28.5089 9.86812 28.4906 10.1166 28.4693 10.3605C28.4374 10.9854 28.4106 11.6073 28.3898 12.2266C28.3685 12.8455 28.3842 13.4673 28.4374 14.0923C28.5013 14.8761 28.594 15.6457 28.7157 16.4027C28.8378 17.1597 28.9833 17.9192 29.1536 18.6817C29.2489 19.1371 29.3549 19.59 29.4714 20.0398C29.5885 20.4897 29.7051 20.937 29.8222 21.3818C29.885 21.6358 29.957 21.8842 30.0371 22.1276C30.1167 22.371 30.1988 22.6205 30.2834 22.874C30.2941 22.9165 30.3103 22.9909 30.3316 23.0966C30.3524 23.2454 30.3367 23.3638 30.2834 23.4539C30.2302 23.5439 30.1507 23.6421 30.0447 23.7478C29.9596 23.8329 29.8668 23.8991 29.7664 23.9457C29.6656 23.9933 29.5677 24.0393 29.4719 24.0808C29.3554 24.1233 29.2383 24.1602 29.1227 24.1921M21.4867 20.2858H21.5662C21.6301 20.2645 21.6772 20.2438 21.7097 20.2225C22.3037 19.8729 22.7645 19.3922 23.094 18.7774C23.1892 18.5972 23.2774 18.4171 23.3565 18.2374C23.4356 18.0578 23.5233 17.8777 23.6186 17.6975C23.7985 17.359 23.9921 17.0301 24.1989 16.7129C24.4062 16.3951 24.573 16.051 24.7002 15.6801C24.8062 15.3947 24.9283 15.1139 25.0662 14.8386C25.2041 14.5638 25.3308 14.2881 25.4479 14.0128C25.5959 13.653 25.7449 13.2933 25.8939 12.933C26.0419 12.5727 26.1692 12.2079 26.2751 11.837C26.307 11.7201 26.3334 11.6042 26.3547 11.4878C26.376 11.3715 26.3704 11.2439 26.339 11.1063C26.2219 11.1281 26.1129 11.1574 26.0125 11.1944C25.9117 11.2313 25.8138 11.2758 25.7185 11.329C25.3369 11.5192 24.9628 11.7201 24.5963 11.9321C24.2304 12.1436 23.8776 12.3764 23.5385 12.6309C23.2627 12.8429 23.0032 13.0625 22.7589 13.2902C22.5156 13.5179 22.3189 13.7856 22.1709 14.0923C22.1071 14.2299 22.0407 14.365 21.9717 14.4971C21.9023 14.6296 21.8415 14.7647 21.7882 14.9024C21.7036 15.1245 21.622 15.3497 21.5424 15.5774C21.4633 15.8046 21.3964 16.0348 21.3437 16.2681C21.29 16.469 21.2535 16.6734 21.2327 16.8788C21.2104 17.0853 21.1901 17.2948 21.1688 17.5063C21.1258 17.8559 21.1075 18.2051 21.1131 18.5547C21.1182 18.9039 21.1526 19.2535 21.216 19.6032C21.2373 19.7195 21.2662 19.839 21.3037 19.9599C21.3407 20.0823 21.4015 20.1901 21.4861 20.2858" fill="#080B17"/>
<path d="M38.1844 13.6808C38.1317 13.7971 38.081 13.914 38.0334 14.0299C37.9858 14.1468 37.9406 14.2632 37.8981 14.3796C37.7495 14.8567 37.6061 15.3354 37.4687 15.8166C37.3309 16.2988 37.1874 16.7775 37.0389 17.2537C36.9436 17.5507 36.8534 17.8487 36.7693 18.1513C36.6841 18.4524 36.5782 18.7464 36.4509 19.0323C36.3131 19.3075 36.1483 19.5509 35.9583 19.7624C35.7672 19.9745 35.5284 20.1389 35.2415 20.2548C35.1883 20.276 35.1381 20.3079 35.0905 20.3499C35.0428 20.3929 34.9927 20.4294 34.9394 20.4617C34.7595 20.567 34.5816 20.6495 34.4067 20.7082C34.2313 20.7659 34.0377 20.779 33.8263 20.7471C33.4761 20.6839 33.1897 20.525 32.9667 20.271C32.7867 20.0595 32.6327 19.8318 32.5054 19.5884C32.3777 19.345 32.2723 19.0854 32.1871 18.8101C32.0599 18.3967 31.9641 17.9823 31.9007 17.5633C31.8374 17.1454 31.7897 16.7188 31.7578 16.2852C31.7254 15.9036 31.6939 15.5201 31.662 15.1335C31.6306 14.7474 31.6093 14.3634 31.5991 13.9823C31.5885 13.5806 31.5936 13.1778 31.6149 12.775C31.6351 12.3733 31.6569 11.971 31.6782 11.5682C31.6995 11.092 31.7314 10.623 31.774 10.1625C31.8156 9.70205 31.8536 9.23349 31.8845 8.75683C31.9063 8.5772 31.9697 8.40212 32.0761 8.23311C32.1815 8.06411 32.3412 7.95785 32.5531 7.91534C32.6271 7.89409 32.6985 7.87284 32.768 7.85209C32.8369 7.83084 32.9084 7.80959 32.9829 7.78834C33.3539 7.74583 33.6241 7.8946 33.7944 8.23311C33.8684 8.37075 33.9318 8.51142 33.985 8.65361C34.0377 8.79681 34.0646 8.95316 34.0646 9.12217C34.0534 9.32356 34.0722 9.5214 34.1203 9.71773C34.168 9.91406 34.2024 10.1129 34.2237 10.3128C34.2445 10.4621 34.2602 10.6154 34.2714 10.7738C34.2815 10.9321 34.2922 11.0855 34.3033 11.2342C34.3241 11.6785 34.3428 12.1208 34.3586 12.56C34.3748 12.9992 34.3935 13.4409 34.4143 13.8862C34.4361 14.1615 34.4483 14.4281 34.4544 14.6877C34.4594 14.9478 34.4731 15.215 34.4939 15.4902C34.5045 15.7018 34.5121 15.9188 34.5177 16.1415C34.5228 16.3636 34.5415 16.5863 34.574 16.8084C34.6161 17.1155 34.6313 17.4232 34.6216 17.7298C34.6105 18.037 34.6475 18.3436 34.7326 18.6508C34.7641 18.8096 34.8173 18.9528 34.8918 19.0804C34.9769 19.2392 35.0722 19.2392 35.1782 19.0804C35.2415 18.9741 35.3029 18.8683 35.3612 18.7621C35.4194 18.6568 35.4646 18.5455 35.497 18.4291C35.5806 18.0901 35.6638 17.7536 35.7428 17.4207C35.8224 17.0872 35.9045 16.7512 35.9897 16.4122C36.1063 15.978 36.2178 15.5494 36.3232 15.1254C36.4296 14.7024 36.5462 14.2789 36.6735 13.8548C36.7693 13.5689 36.8777 13.2911 36.9999 13.0209C37.1215 12.7512 37.2401 12.479 37.3572 12.2037C37.411 12.0661 37.4713 11.9335 37.5402 11.8065C37.6091 11.6795 37.67 11.5474 37.7232 11.4093C37.9558 10.8482 38.2848 10.3189 38.7091 9.82147C38.7831 9.74708 38.8469 9.65145 38.9001 9.53507C39.0274 9.23905 39.2504 9.09029 39.5682 9.09029H40.0452C40.2043 9.09029 40.364 9.09585 40.5232 9.10597C40.6712 9.1166 40.7715 9.14848 40.8247 9.20161C40.878 9.25423 40.9251 9.34987 40.9677 9.487C41.0103 9.63576 41.0295 9.77795 41.0234 9.91558C41.0179 10.0532 41.0158 10.1959 41.0158 10.3447C41.0158 10.5779 41.026 10.8112 41.0478 11.0435C41.0686 11.2767 41.0686 11.5151 41.0478 11.7585C41.026 12.2346 40.994 12.7113 40.952 13.1874C40.9099 13.6641 40.8729 14.1407 40.8405 14.6169C40.8192 14.9341 40.804 15.2544 40.7928 15.5783C40.7827 15.9006 40.766 16.2209 40.7457 16.5382C40.734 16.7502 40.7239 16.9617 40.7132 17.1737C40.7026 17.3862 40.6914 17.5978 40.6818 17.8093C40.6712 18.0107 40.66 18.211 40.6494 18.4124C40.6387 18.6143 40.6387 18.8152 40.6494 19.0166C40.66 19.3652 40.6757 19.7174 40.6975 20.0721C40.7178 20.4268 40.7401 20.7841 40.7609 21.1433C40.7609 21.2607 40.766 21.371 40.7771 21.4773C40.7878 21.5825 40.809 21.6944 40.8405 21.8102C40.8942 21.9798 40.918 22.1437 40.9119 22.3026C40.9069 22.4615 40.8988 22.6254 40.8881 22.7949C40.8775 22.8481 40.8673 22.9037 40.8567 22.9619C40.8465 23.0201 40.8141 23.0758 40.7614 23.1279C40.7082 23.1815 40.6605 23.2473 40.6185 23.3267C40.5754 23.4062 40.5277 23.4831 40.475 23.557C40.4537 23.5787 40.435 23.6025 40.4198 23.6288C40.4035 23.6546 40.3853 23.6794 40.364 23.6997C40.1947 23.8484 40.0219 23.9724 39.847 24.0731C39.6721 24.1743 39.4628 24.2188 39.219 24.2087C38.9001 24.1976 38.6619 24.0655 38.5033 23.8115C38.45 23.727 38.4014 23.6369 38.3598 23.5413C38.3172 23.4457 38.2808 23.351 38.2488 23.2554C38.0897 22.7373 37.9726 22.2181 37.8981 21.6994C37.8241 21.1808 37.7871 20.6515 37.7871 20.1111C37.7871 19.3278 37.7947 18.5501 37.8109 17.7769C37.8261 17.0042 37.8768 16.231 37.9619 15.4584C37.9939 15.215 38.0283 14.9792 38.0648 14.752C38.1023 14.5243 38.1419 14.2885 38.1839 14.0456C38.1946 13.9925 38.2027 13.9343 38.2083 13.8705C38.2128 13.8073 38.2214 13.7486 38.2316 13.6965C38.2209 13.6965 38.2128 13.6939 38.2083 13.6884C38.2022 13.6833 38.1946 13.6808 38.1839 13.6808" fill="#080B17"/>
<path d="M44.7765 21.8373C44.8079 22.113 44.8348 22.3721 44.8556 22.616C44.8769 22.828 44.8931 23.0284 44.9032 23.2187C44.9139 23.4094 44.9088 23.542 44.8875 23.6164C44.8343 23.8168 44.7496 23.9706 44.6326 24.0763C44.5165 24.1826 44.3568 24.2246 44.1556 24.2039C43.8479 24.1619 43.6066 24.048 43.4318 23.8628C43.2569 23.6771 43.1114 23.4626 42.9943 23.2192C42.9097 23.0608 42.8509 22.9075 42.8195 22.7587C42.7875 22.6216 42.7561 22.4895 42.7237 22.362C42.6917 22.2345 42.6654 22.1029 42.6446 21.9643C42.5914 21.4036 42.5361 20.848 42.4768 20.298C42.4185 19.747 42.3689 19.1914 42.3268 18.6297C42.2842 18.1323 42.2442 17.6405 42.2072 17.1527C42.1702 16.6659 42.157 16.168 42.1676 15.6594C42.1783 15.3741 42.1808 15.0882 42.1752 14.8028C42.1697 14.5174 42.1676 14.231 42.1676 13.9451C42.1783 13.7655 42.1859 13.5879 42.1915 13.4138C42.1965 13.2382 42.2051 13.0611 42.2153 12.881C42.2153 12.7013 42.2122 12.5268 42.2072 12.3567C42.2016 12.1877 42.2051 12.0132 42.2153 11.8325C42.2254 11.621 42.2573 11.409 42.3106 11.1975C42.3744 10.9435 42.5255 10.7557 42.7642 10.6338C43.0024 10.5129 43.2387 10.5098 43.4718 10.6257C43.5565 10.6687 43.6279 10.7239 43.6867 10.7927C43.745 10.8615 43.8003 10.9328 43.8535 11.0072C43.9493 11.156 44.0208 11.3088 44.0689 11.4677C44.1166 11.6261 44.1617 11.7905 44.2048 11.96C44.3 12.3628 44.3654 12.7626 44.4034 13.1593C44.4399 13.556 44.4536 13.9557 44.443 14.358C44.4323 14.6343 44.4303 14.9009 44.4354 15.16C44.4405 15.4196 44.443 15.6868 44.443 15.962H44.4592C44.48 16.2793 44.4906 16.594 44.4906 16.9067C44.4906 17.2195 44.5013 17.5337 44.5231 17.8515L44.7618 21.186C44.7719 21.3029 44.7775 21.4112 44.7775 21.5119V21.8373H44.7765ZM43.5514 9.41888C43.488 9.45025 43.4135 9.47201 43.3294 9.48213C43.2442 9.49225 43.1626 9.48466 43.083 9.45784C43.003 9.43153 42.9295 9.37334 42.86 9.28277C42.7916 9.19371 42.7414 9.0586 42.7095 8.87796C42.6775 8.69833 42.6851 8.54703 42.7338 8.42559C42.7815 8.30365 42.8423 8.20093 42.9163 8.11592C43.0014 8.02028 43.1074 7.94135 43.2351 7.87759C43.2665 7.85684 43.338 7.86696 43.4485 7.90947C43.5605 7.95197 43.6746 7.99954 43.7911 8.05216C43.9184 8.10529 44.0319 8.22724 44.1333 8.4175C44.2342 8.60826 44.2899 8.77777 44.3006 8.92553C44.3006 8.99991 44.2767 9.06063 44.2291 9.10819C44.1814 9.15576 44.1176 9.20079 44.038 9.2433C43.9589 9.28631 43.8768 9.32021 43.7917 9.34703C43.706 9.37334 43.6269 9.39712 43.5524 9.41837" fill="#080B17"/>
<path d="M0.851548 25.8614H1.35538C1.75429 25.9844 1.954 26.1184 1.954 26.2622C1.954 26.4924 2.03763 26.6933 2.20592 26.8633V27.264C2.2931 27.264 2.37572 27.3804 2.45428 27.6137V28.1637C2.56985 28.1637 2.63676 28.3135 2.65501 28.612C2.68947 28.612 2.7062 28.6292 2.7062 28.6632V28.9111C2.80605 28.9111 2.85522 28.9951 2.85522 29.1621H3.00526C3.19432 28.9946 3.3109 28.9111 3.35551 28.9111V28.6632C3.43458 28.4957 3.51872 28.4112 3.60742 28.4112V28.1126C3.60742 28.0448 3.69156 28.0104 3.85934 28.0104V27.4133C3.75695 27.4133 3.70576 27.3794 3.70576 27.3111C3.77165 27.2792 3.82284 27.264 3.85934 27.264V26.8633C3.94601 26.5749 4.04536 26.3421 4.15839 26.1635C4.20807 26.0299 4.25825 25.9631 4.30792 25.9631H4.80821L4.96179 25.8614H5.70943C6.01102 25.958 6.16207 26.0253 6.16207 26.0618V26.3128C6.16207 26.3755 6.02825 26.4757 5.76062 26.6118C5.57156 26.6457 5.40429 26.8122 5.26084 27.1107V30.7115C5.46055 30.7115 5.5599 30.7621 5.5599 30.8643H5.96134C5.99531 30.8643 6.11239 30.9812 6.31159 31.2144C6.25685 31.2144 6.13976 31.3141 5.96134 31.513H3.95717L3.60742 31.261C3.50757 31.261 3.45739 31.2291 3.45739 31.1623V31.0606C3.46043 31.0161 3.54305 30.9508 3.70576 30.8638H3.95717C3.95717 30.7616 4.04181 30.711 4.20959 30.711V29.1616C4.20959 29.0963 4.25926 29.0634 4.35912 29.0634V28.5599C4.25926 28.5599 4.20959 28.527 4.20959 28.4613V27.6597H4.00887V28.359C3.80612 28.5817 3.70525 28.8666 3.70525 29.2127C3.59424 29.2127 3.51213 29.4631 3.45688 29.9631H3.355V30.3603C3.25514 30.4493 3.1558 30.7494 3.05544 31.26H2.65399C2.60178 31.2159 2.46898 30.9498 2.2561 30.462C2.18817 30.462 2.15371 30.4281 2.15371 30.3603V29.9125L2.05588 29.7632V29.3108C1.96464 29.3108 1.86276 29.1444 1.75226 28.8119C1.71577 28.8119 1.63315 28.5953 1.5039 28.1627C1.43597 28.1627 1.40201 28.1293 1.40201 28.061V27.8131H1.20129V27.9628L1.30368 28.1116C1.23525 28.1227 1.20129 28.1551 1.20129 28.2103V30.0101L1.30368 30.1599V30.4625L1.80396 30.8633C1.8876 30.8633 2.02141 30.9801 2.2049 31.2134L1.95299 31.3627H1.4527C1.4527 31.4619 1.41975 31.512 1.35487 31.512H0.60318C0.534245 31.512 0.500285 31.4619 0.500285 31.3627H0.251916C0.0866755 31.2731 0.00253437 31.2063 0 31.1618V30.9614C0.501805 30.6781 0.752201 30.4949 0.752201 30.4114V27.6122C0.752201 27.5444 0.802382 27.51 0.901729 27.51V27.1603C0.785655 27.1603 0.718747 27.011 0.7005 26.712C0.656402 26.712 0.506367 26.5784 0.251916 26.3107V26.0598C0.251916 25.994 0.435912 25.9439 0.803395 25.91C0.803395 25.8766 0.819615 25.8594 0.851041 25.8594" fill="#080B17"/>
<path d="M9.11067 25.9062H9.54759C9.59473 25.9614 9.80509 26.0105 10.1771 26.0525V26.1506H10.4174C10.8558 26.4785 11.1143 26.7685 11.1929 27.0195C11.4083 27.1789 11.5533 27.3732 11.6303 27.6014V27.9859C11.7272 27.9859 11.7758 28.0193 11.7758 28.0846V28.5172C11.8731 28.5172 11.9213 28.5501 11.9213 28.6154V29.0516C11.9213 29.1143 11.8726 29.1462 11.7758 29.1462V29.5348C11.6942 29.6163 11.5974 29.7772 11.4844 30.0186H11.3855V30.2584C10.9055 30.9036 10.502 31.2254 10.1766 31.2254C10.1766 31.3225 10.1437 31.3716 10.0783 31.3716H9.64137C9.64137 31.4678 9.60943 31.5168 9.54658 31.5168H9.35346C9.28807 31.5168 9.25513 31.4678 9.25513 31.3716H8.86889L8.52624 31.1323C8.34225 30.9693 8.19779 30.8884 8.09286 30.8884C8.09286 30.7416 7.89924 30.5003 7.51047 30.1648C7.51047 30.0833 7.47853 30.0024 7.41568 29.9209V29.6304C7.30316 29.6304 7.23726 29.4857 7.21901 29.1978C7.18759 29.1978 7.17188 29.1806 7.17188 29.1467V27.9869C7.22966 27.9161 7.27781 27.7552 7.31735 27.5037C7.44609 27.5037 7.52618 27.3757 7.5571 27.1191C7.69142 27.1191 7.82118 26.9577 7.94689 26.6354C8.00416 26.6354 8.08475 26.5054 8.18714 26.2458C8.30018 26.2458 8.52726 26.1658 8.86838 26.0064C8.94695 26.0064 9.02754 25.9735 9.10915 25.9073M9.0615 26.5367C9.0615 26.602 8.93174 26.6992 8.67172 26.8277C8.67172 26.893 8.59163 27.0367 8.43146 27.2598C8.43146 27.3565 8.3828 27.4055 8.28649 27.4055V27.6965L8.18765 27.8417V28.3255C8.18765 28.3912 8.13899 28.4231 8.04218 28.4231V28.7611C8.13899 28.7611 8.18765 28.793 8.18765 28.8563V29.8227L8.28649 29.968V30.2118C8.3828 30.2118 8.44768 30.309 8.4791 30.5028C8.56831 30.5028 8.71379 30.5822 8.91552 30.7421C9.17301 30.7998 9.30176 30.8818 9.30176 30.986H9.49488C9.49488 30.8555 9.68901 30.7897 10.0773 30.7897C10.1249 30.7897 10.2542 30.6941 10.4671 30.5028C10.572 30.0828 10.6678 29.8743 10.755 29.8743V28.6159L10.9004 28.4231V27.8888C10.8026 27.8888 10.755 27.8574 10.755 27.7947V27.4055C10.7017 27.4055 10.5892 27.2613 10.4159 26.9729C10.3003 26.8419 10.1234 26.7123 9.88466 26.5843V26.5367H9.0615Z" fill="#080B17"/>
<path d="M14.7639 25.9297C14.9033 25.9606 15.1476 25.9767 15.4964 25.9767L15.6418 26.1731V26.3188C15.6418 26.4028 15.3808 26.501 14.8582 26.6133L14.8116 26.7115V30.6102C14.8851 30.8384 15.0148 30.9528 15.2009 30.9528C15.4954 31.0029 15.6418 31.0677 15.6418 31.1491V31.2949C15.6418 31.3389 15.5607 31.4204 15.3975 31.5388H15.0554L14.9099 31.4406H14.3696L14.2246 31.5388H14.1263L13.9803 31.4406H13.1029C13.0502 31.4406 12.9848 31.3763 12.9062 31.2478V31.0515C12.9062 31.009 13.0036 30.9437 13.1977 30.8546H13.296L13.4415 30.9528H13.6894C13.7208 30.7064 13.7689 30.544 13.8353 30.4655V30.0759C13.8353 29.9656 13.8181 29.8841 13.7836 29.832L13.8353 29.5375V28.7593L13.7836 28.4643C13.8176 28.4116 13.8353 28.3307 13.8353 28.2204V28.0281L13.737 27.8788V26.8061C13.737 26.6568 13.4592 26.5425 12.9062 26.464V26.2712C12.9062 26.2242 13.0036 26.1255 13.1977 25.9767H13.6894C14.0305 25.9767 14.3889 25.9606 14.7639 25.9297Z" fill="#080B17"/>
<path d="M17.5165 25.876H18.4537C18.6762 25.9413 18.8379 26.0283 18.9378 26.1356L19.3113 26.509C19.3722 26.4594 19.4213 26.4341 19.4609 26.4341V26.21C19.5318 26.0212 19.62 25.9104 19.7244 25.876H19.7995C19.8466 25.876 19.9216 25.9757 20.0245 26.1746C20.0478 26.1746 20.0595 26.1862 20.0595 26.21V27.3303C20.0595 27.3799 20.023 27.4052 19.949 27.4052V28.0776C19.949 28.1272 19.9241 28.1525 19.874 28.1525H19.7239C19.6246 28.1368 19.5252 27.9871 19.4254 27.7037C19.3808 27.7037 19.3428 27.5924 19.3108 27.3702C19.1907 27.2893 19.1152 27.1511 19.0868 26.9573C18.8506 26.7084 18.6889 26.5839 18.6022 26.5839C18.4765 26.5601 18.4126 26.511 18.4126 26.4341H18.1886L18.0786 26.3598H17.8895C17.6716 26.4675 17.5606 26.5414 17.555 26.5834C17.4496 26.5966 17.3371 26.6846 17.2164 26.8465H17.1799V27.3692C17.222 27.3692 17.3589 27.5048 17.59 27.7776C17.8161 27.8171 17.9286 27.8803 17.9286 27.9668H18.1531C18.1851 28.0033 18.3346 28.0397 18.6022 28.0766V28.1515H18.8263C18.8764 28.1515 18.9013 28.1895 18.9013 28.2649H19.1258C19.2728 28.4283 19.4588 28.527 19.6844 28.5639C19.6844 28.6135 19.8091 28.7501 20.059 28.9728C20.059 29.1114 20.1223 29.2496 20.248 29.3857V30.4665L19.874 31.1774C19.6484 31.3166 19.5354 31.4036 19.5354 31.4375H19.1258L19.0118 31.5124H18.8617L18.7517 31.4375H18.1886C18.0071 31.2877 17.8713 31.2134 17.7796 31.2134C17.7796 31.0848 17.7045 31.0099 17.555 30.9887C17.555 30.8652 17.4922 30.8035 17.3665 30.8035C17.3665 30.7777 17.3543 30.7645 17.3305 30.7645H17.2164C17.0821 30.7883 16.9959 31.012 16.9564 31.437H16.7673L16.5823 31.2523V29.5339L16.5078 29.4201V29.0866C16.5757 28.911 16.6259 28.8235 16.6573 28.8235H16.8064L16.9914 29.0866C16.9914 29.3588 17.0547 29.5451 17.1799 29.6447V29.8694C17.2362 29.8694 17.3604 30.0566 17.5545 30.4311C17.5986 30.4311 17.7608 30.592 18.0386 30.9148C18.1653 30.9148 18.2276 30.9533 18.2276 31.0287H18.6372L18.7512 31.103H19.0508C19.2247 31.0277 19.3103 30.9644 19.3103 30.9148C19.5597 30.7418 19.6844 30.5809 19.6844 30.4311H19.7599V29.9079C19.6854 29.9079 19.6362 29.8335 19.6104 29.6842C19.5445 29.5587 19.4943 29.4955 19.4604 29.4955C19.2586 29.3224 19.0473 29.2364 18.8263 29.2364C18.811 29.1286 18.6113 29.0537 18.2281 29.0117V28.9373H18.0046C17.9539 28.9373 17.9291 28.8989 17.9291 28.823H17.6295C17.4278 28.7653 17.1282 28.5042 16.7318 28.0407C16.6477 27.9071 16.5732 27.7325 16.5078 27.5175V27.18C16.5443 27.1506 16.5808 27.0019 16.6183 26.7312L16.8819 26.3582C16.8819 26.2454 17.0927 26.0845 17.516 25.875" fill="#080B17"/>
<path d="M22.2811 25.9614C22.3308 25.9614 22.3561 25.9984 22.3561 26.0718H22.7302L22.8407 26.1466L22.9547 26.0718H23.3633C23.3633 25.9984 23.3886 25.9614 23.4383 25.9614H24.1869C24.2366 25.9614 24.2615 25.9984 24.2615 26.0718H24.707C24.707 25.9984 24.7318 25.9614 24.781 25.9614C24.8074 26.009 24.8205 26.0459 24.8205 26.0718H25.0806C25.0806 25.9984 25.1054 25.9614 25.1556 25.9614H25.3056C25.3766 26.0353 25.4759 26.0849 25.6042 26.1112L25.6792 26.221V27.3019C25.7527 27.3019 25.7897 27.3266 25.7897 27.3762V27.9379L25.6042 28.198H25.3452C25.2955 28.198 25.257 28.0487 25.2306 27.7492C25.2068 27.7492 25.1951 27.7375 25.1951 27.7142V27.4157C25.1302 27.4157 25.0674 27.3277 25.0061 27.1521V26.932C24.9432 26.932 24.8814 26.8444 24.821 26.6683C24.672 26.6683 24.597 26.6314 24.597 26.5585H23.9629V27.8994C24.0364 27.8994 24.0734 27.9242 24.0734 27.9738C24.0263 28.0001 23.9898 28.0128 23.9629 28.0128V28.6458C24.0364 28.6458 24.0734 28.6711 24.0734 28.7207V30.6941C24.1226 30.7938 24.1981 30.8682 24.2969 30.9183H24.746L25.0061 31.1065C25.0821 31.1647 25.1201 31.2011 25.1201 31.2173V31.3666C25.1201 31.398 25.0329 31.4481 24.8565 31.5159H22.5056C22.2831 31.445 22.1584 31.3585 22.1321 31.2563V31.2173C22.2005 31.068 22.3009 30.9927 22.4311 30.9927C22.4387 30.9431 22.4641 30.9183 22.5056 30.9183C22.5295 30.9679 22.5416 31.0063 22.5416 31.0321H22.8802C23.0298 30.8484 23.1043 30.7245 23.1043 30.6592H23.1793V30.2853C23.1038 30.2853 23.0657 30.2605 23.0657 30.2104V27.0068C23.0657 26.9573 23.1038 26.932 23.1793 26.932V26.5585C23.1408 26.5585 23.0906 26.5342 23.0303 26.4841H22.4666C22.1939 26.7119 22.0571 26.8864 22.0571 27.0063C22.0571 27.1035 22.0206 27.1516 21.9471 27.1516V27.3403L21.8721 27.4501V27.9374L21.6835 28.1975C21.6227 28.1975 21.5608 28.2223 21.498 28.2719L21.2734 28.1226V26.6334C21.3155 26.5965 21.3525 26.4341 21.3839 26.1461C21.4225 26.1461 21.4737 26.1208 21.5335 26.0712H22.2061C22.2061 25.9979 22.2309 25.9609 22.2816 25.9609" fill="#080B17"/>
<path d="M31.1208 25.7734H31.8294C31.8841 25.8154 32.0093 25.8524 32.203 25.8837C32.203 25.9207 32.24 25.9703 32.3134 26.033V26.2921C32.3134 26.3235 32.2273 26.3731 32.0539 26.4414H31.5308C31.5308 26.536 31.5055 26.6099 31.4553 26.665V30.2819C31.3737 30.3533 31.2992 30.5021 31.2313 30.7303C31.1917 30.7303 31.1299 30.8168 31.0463 30.9898C30.9991 31.0556 30.7873 31.1933 30.4086 31.4027H30.1846C30.1846 31.4761 30.1592 31.5126 30.1091 31.5126H29.0264C28.9792 31.5126 28.9559 31.4756 28.9559 31.4027H28.7314C28.4511 31.2717 28.2509 31.1472 28.1328 31.0288C27.9488 30.8639 27.8246 30.6761 27.7587 30.4671C27.709 30.4671 27.6837 30.4439 27.6837 30.3968V29.2411L27.6086 29.1267V28.4188L27.6837 28.305V27.8966L27.6086 27.7863V27.0749L27.6837 26.9646V26.4424C27.5919 26.4424 27.5169 26.4176 27.4591 26.3675H27.1601L27.0496 26.4424H26.9C26.86 26.4424 26.8103 26.3928 26.75 26.2931V26.1084C26.75 26.0614 26.8499 25.9865 27.0496 25.8843C27.0496 25.861 27.0607 25.8488 27.085 25.8488H27.2746C27.3238 25.8488 27.3491 25.8853 27.3491 25.9581H27.6086C27.6086 25.8853 27.6335 25.8488 27.6837 25.8488H28.3923C28.4425 25.8488 28.4673 25.8853 28.4673 25.9581H28.9554C28.9554 25.8853 28.9782 25.8488 29.0259 25.8488H29.1764C29.2261 25.8488 29.2509 25.8853 29.2509 25.9581H29.44C29.5632 26.0239 29.6245 26.074 29.6245 26.1079C29.5961 26.1079 29.5343 26.1934 29.44 26.367H28.8059C28.7065 26.4166 28.631 26.4915 28.5813 26.5911V30.0224L28.6558 30.1327V30.6159C28.8556 30.7237 28.9554 30.8229 28.9554 30.915H29.1764L29.2899 30.9893H30.0381L30.1481 30.915H30.3726C30.3726 30.8755 30.4973 30.7389 30.7467 30.5061C30.7467 30.4069 30.7837 30.3568 30.8567 30.3568V30.1327L30.9317 30.0224V28.305L30.8567 28.1952V27.8217L30.9317 27.7114V27.5227L30.8567 27.4129V26.8158C30.7837 26.8158 30.7219 26.6908 30.6717 26.4419C30.2728 26.3847 30.0731 26.3346 30.0731 26.2926C29.9291 26.2405 29.8419 26.1656 29.8135 26.0689C30.0107 25.9612 30.1085 25.8878 30.1085 25.8488H31.0067L31.1213 25.7739L31.1208 25.7734Z" fill="#080B17"/>
<path d="M34.1505 25.7891H36.733C36.8015 25.7891 36.8354 25.8417 36.8354 25.9459H37.1467L37.3007 26.0486H37.7691C38.0996 26.3315 38.2886 26.5536 38.3358 26.7166C38.4042 26.7292 38.4382 26.7651 38.4382 26.8228V27.597C38.3256 27.6962 38.2212 27.9021 38.1269 28.2138C37.7149 28.4577 37.5091 28.6126 37.5091 28.6784V29.0396C37.6961 29.2415 37.8674 29.4829 38.0251 29.7632V30.0188C38.1538 30.0188 38.24 30.1918 38.2846 30.5379V30.589H38.387C38.387 30.5076 38.5593 30.3173 38.903 30.0188C38.903 30.079 39.0064 30.1999 39.2142 30.3806V30.8992L38.9547 31.257C38.8386 31.257 38.719 31.3435 38.5958 31.5165H37.8203C37.7285 31.3986 37.5734 31.2777 37.3555 31.1547C37.3555 31.1052 37.3033 31.0014 37.1978 30.8446C37.1978 30.5637 37.1634 30.3922 37.096 30.3294V29.4014C36.9931 29.4014 36.9236 29.3149 36.8871 29.1419C36.7503 29.1419 36.6824 29.0907 36.6824 28.9885H35.6463C35.6463 29.0907 35.5956 29.1419 35.4932 29.1419V29.5548L35.3913 29.7121V30.3806C35.512 30.7601 35.735 30.9503 36.0599 30.9503C36.1628 30.9503 36.2834 31.0019 36.4228 31.1041C36.5278 31.1041 36.58 31.138 36.58 31.2064C36.5222 31.2064 36.4015 31.3101 36.2175 31.517H34.926C34.8551 31.517 34.8201 31.4659 34.8201 31.3637H33.5798C33.5276 31.3637 33.4591 31.2939 33.375 31.1553C33.4698 31.0374 33.6411 30.9336 33.891 30.8451C33.9016 30.9159 33.9351 30.9508 33.9929 30.9508H34.0998C34.2362 30.88 34.3381 30.7768 34.4065 30.6406V26.667C33.9944 26.3786 33.7881 26.2065 33.7881 26.1519C33.7881 26.118 33.9092 25.997 34.1505 25.7906M35.4932 26.8749V28.1637C35.5956 28.1637 35.6463 28.2149 35.6463 28.3176H36.9424C36.9424 28.2229 37.0802 28.0853 37.3555 27.9047V27.6486L37.4579 27.4913L37.3555 27.3379V27.0273C37.2977 27.0273 37.1771 26.8729 36.9936 26.5633L36.8876 26.5121H35.8044C35.7624 26.5121 35.6757 26.6326 35.5449 26.8734H35.4932V26.8749Z" fill="#080B17"/>
<path d="M40.4802 25.9073H44.5909C44.6148 25.9073 44.7025 25.9953 44.854 26.1704V27.1885L44.9295 27.2988V27.6758C44.8616 27.8513 44.8109 27.9384 44.7795 27.9384H44.6264L44.4369 27.6758V27.4516C44.3684 27.4516 44.2944 27.3266 44.2128 27.0746L43.9842 26.6617C43.9107 26.5094 43.7348 26.434 43.4571 26.434C43.4571 26.4107 43.4444 26.3981 43.4216 26.3981H42.4768C42.2695 26.4871 42.1316 26.6 42.0632 26.7356V28.2769C42.0632 28.3138 42.1012 28.3513 42.1772 28.3912H42.6653C42.9355 28.2551 43.0749 28.1539 43.0825 28.0887V27.7147L43.2675 27.4511H43.4216C43.4606 27.4511 43.5103 27.5012 43.5706 27.6009V29.5976C43.5022 29.7731 43.453 29.8607 43.4216 29.8607L43.193 29.7079V29.4837C43.1119 29.4837 43.0485 29.3203 43.0039 28.9924C42.9304 28.9924 42.8939 28.9559 42.8939 28.8821H42.1377C42.1377 28.9215 42.1128 28.9711 42.0627 29.0318V30.6865C42.0627 30.7052 42.164 30.8054 42.3663 30.9886H43.3466L43.4571 30.9142H43.8747C43.8747 30.8307 43.9482 30.7791 44.0988 30.7609C44.2164 30.6086 44.3046 30.433 44.3618 30.2341H44.4369V30.01C44.4369 29.9599 44.4754 29.9356 44.5514 29.9356V29.6325C44.6376 29.4331 44.7253 29.3076 44.8145 29.255H44.8535L45.0431 29.4437V29.5971C45.0431 29.6466 45.0056 29.6714 44.929 29.6714V30.1238C45.0051 30.1238 45.0431 30.1486 45.0431 30.1987V30.348L44.929 30.4977V31.2527C44.929 31.2912 44.8788 31.3418 44.779 31.402H42.5153C42.5153 31.4779 42.4905 31.5158 42.4408 31.5158H40.3656C40.2759 31.4657 40.1882 31.3397 40.1016 31.1383C40.2491 30.9886 40.3373 30.9147 40.3656 30.9147H40.9678C40.9678 30.8388 41.0307 30.8008 41.1569 30.8008V28.6539C41.1569 28.6048 41.1949 28.5795 41.2709 28.5795V27.5614C41.1949 27.5614 41.1569 27.5371 41.1569 27.487V26.5828L40.8188 26.3976H40.4792C40.278 26.2407 40.1766 26.1517 40.1766 26.1304L40.4792 25.9062L40.4802 25.9073Z" fill="#080B17"/>
</svg>
